# xmcd
#
# Track frame offsets: 
#        150
#        11702
#        28407
#        54655
#        81410
#        99562
#        114300
#        133228
#        146153
#        165898
#        192536
#        214321
#        224033
#        237368
#        255432
#        272550
#
# Disc length: 3891 seconds
#
# Revision: 0
# Processed by: cddbd v1.5.2PL0 Copyright (c) Steve Scherf et al.
# Submitted via: ExactAudioCopy v1.0b1
#
DISCID=f70f3110
DTITLE=Barrelhouse Chuck - 25 Years Chicago Blues Piano Vol. 3
DYEAR=2014
DGENRE=Chicago Blues, Electric Blues, Piano Blues
TTITLE0=Break It Up
TTITLE1=Got To Let You Go
TTITLE2=Wah-Wah-Blues (Pt.2)
TTITLE3=That's All Right
TTITLE4=Sail The Seven Seas
TTITLE5=Sugar Pie
TTITLE6=Porch Light
TTITLE7=Someday
TTITLE8=I Can't Stop Lovin' You
TTITLE9=Blues After Hours
TTITLE10=Going To Chicago
TTITLE11=Ann
TTITLE12=Barrelhouse Woman
TTITLE13=Ain't Times Hard
TTITLE14=Mt St Helens Blues
TTITLE15=Don't Go To Dallas
EXTD=
EXTT0=
EXTT1=
EXTT2=
EXTT3=
EXTT4=
EXTT5=
EXTT6=
EXTT7=
EXTT8=
EXTT9=
EXTT10=
EXTT11=
EXTT12=
EXTT13=
EXTT14=
EXTT15=
PLAYORDER=
